<svg width="92" height="78" viewBox="0 0 92 78" fill="none" xmlns="http://www.w3.org/2000/svg">
<path fill-rule="evenodd" clip-rule="evenodd" d="M60.8851 36.3929C53.2449 36.3929 47.0512 30.1993 47.0512 22.5591L47.0512 0.519458H91.2036V36.3929L60.8851 36.3929ZM0.139956 77.7857V77.786H91.2041V0.519458H91.2036V0.51917L47.0512 0.519165V0.519458H41.5317V0.519165L0.138921 0.51917L0.138924 36.3929H0.139956V41.9119H0.138916V77.7857H0.139956ZM0.139956 77.7857V41.9119H27.6979C35.3381 41.9119 41.5317 48.1055 41.5317 55.7458V77.7857H0.139956ZM0.139956 36.3929L27.6979 36.3929C35.3381 36.3929 41.5317 30.1993 41.5317 22.5591L41.5317 0.519458H0.139956V36.3929ZM47.0512 55.7458C47.0512 48.1055 53.2449 41.9119 60.8851 41.9119H91.2036V77.7857H47.0512V55.7458Z" fill="black" fill-opacity="0.2"/>
</svg>
