<svg width="82" height="82" viewBox="0 0 82 82" fill="none" xmlns="http://www.w3.org/2000/svg">
<path d="M5.3033 76.014C2.37437 73.0851 2.37437 68.3363 5.3033 65.4074L65.4074 5.30332C68.3363 2.37438 73.085 2.37439 76.014 5.30332V5.30332C78.9429 8.23225 78.9429 12.981 76.014 15.9099L15.9099 76.014C12.981 78.9429 8.23223 78.9429 5.3033 76.014V76.014Z" fill="#F4CE47"/>
<path d="M76.014 76.014C73.0851 78.9429 68.3363 78.9429 65.4074 76.014L5.30332 15.9099C2.37438 12.981 2.37439 8.23222 5.30332 5.30328V5.30328C8.23225 2.37435 12.981 2.37435 15.9099 5.30328L76.014 65.4074C78.9429 68.3363 78.9429 73.085 76.014 76.014V76.014Z" fill="#F4CE47"/>
</svg>
