<svg width="166" height="40" viewBox="0 0 166 40" fill="none" xmlns="http://www.w3.org/2000/svg">
<g clip-path="url(#clip0_1717_1008)">
<path d="M15.6136 5.73589V18.948C15.6136 20.378 14.4822 21.5379 13.0846 21.5379H0C0.665199 13.0232 7.29321 6.23055 15.6052 5.5481C15.6112 5.61069 15.6124 5.67207 15.6124 5.73589H15.6136Z" fill="#F4CE47"/>
<path d="M33.9815 21.538H20.8969C19.5006 21.538 18.3679 20.3781 18.3679 18.9481V5.73602C18.3679 5.67219 18.3703 5.60959 18.3751 5.54822C26.6871 6.23067 33.3163 13.0233 33.9803 21.538H33.9815Z" fill="#F4CE47"/>
<path d="M15.6136 26.9476V40.1609C15.6136 40.2235 15.6112 40.2849 15.6064 40.3475C7.29321 39.6638 0.665199 32.8736 0 24.3589H13.0846C14.4822 24.3589 15.6136 25.5176 15.6136 26.9476Z" fill="#F4CE47"/>
<path d="M33.9815 24.3586C33.3163 32.8734 26.6883 39.6636 18.3763 40.346C18.3703 40.2834 18.3691 40.222 18.3691 40.1594V26.9461C18.3691 25.5161 19.5018 24.3574 20.8981 24.3574H33.9827L33.9815 24.3586Z" fill="#F4CE47"/>
<path d="M50.6211 27.75H44.783V16.1729H50.3514C51.1617 16.1729 51.8425 16.2735 52.3938 16.4748C52.9451 16.6761 53.361 16.9903 53.6427 17.4162C53.9231 17.8422 54.0646 18.3896 54.0646 19.0573C54.0646 19.7251 53.8764 20.3105 53.4989 20.7426C53.1213 21.1747 52.5568 21.4361 51.8029 21.5294V21.7025C52.7138 21.7712 53.3946 22.0719 53.8452 22.6009C54.2947 23.1312 54.52 23.7879 54.52 24.571C54.52 25.2166 54.3762 25.7775 54.0897 26.2562C53.8033 26.7349 53.3694 27.1032 52.7905 27.3622C52.2104 27.6212 51.4877 27.7513 50.6223 27.7513L50.6211 27.75ZM47.3143 18.505V20.7512H50.1825C50.6547 20.7512 50.9975 20.6763 51.212 20.5266C51.4254 20.3768 51.532 20.0773 51.532 19.6281C51.532 19.1555 51.4218 18.8499 51.2024 18.7124C50.9831 18.5749 50.6427 18.505 50.1813 18.505H47.3131H47.3143ZM47.3143 22.8599V25.4179H50.5372C50.9987 25.4179 51.3522 25.343 51.6003 25.1933C51.8472 25.0435 51.9719 24.6986 51.9719 24.1561C51.9719 23.6136 51.8508 23.2343 51.6087 23.0845C51.3666 22.9348 51.0095 22.8599 50.5372 22.8599H47.3143Z" fill="white"/>
<path d="M57.9945 27.75H55.4631V16.1729H57.9945V27.7513V27.75Z" fill="white"/>
<path d="M63.8676 27.9231C62.7877 27.9231 61.8768 27.6837 61.1337 27.2062C60.3918 26.7288 59.8261 26.0426 59.4377 25.1503C59.0494 24.2579 58.8552 23.195 58.8552 21.9614C58.8552 20.7278 59.0746 19.7005 59.5132 18.8081C59.9519 17.9158 60.5823 17.2247 61.4034 16.735C62.2244 16.2452 63.2084 16.001 64.3566 16.001C65.5048 16.001 66.4265 16.1826 67.1912 16.546C67.9559 16.9093 68.5348 17.4187 68.9291 18.0753C69.3222 18.732 69.52 19.5213 69.52 20.4431V20.529H66.8376V20.4603C66.8376 19.7226 66.6458 19.2132 66.2635 18.9309C65.8812 18.6486 65.228 18.5074 64.3063 18.5074C63.665 18.5074 63.1425 18.6056 62.7373 18.8008C62.3322 18.9972 62.0338 19.3457 61.8432 19.8465C61.6515 20.3473 61.5568 21.0531 61.5568 21.9639C61.5568 22.8746 61.6574 23.6 61.86 24.107C62.0626 24.6139 62.3826 24.9649 62.8212 25.1613C63.2599 25.3577 63.834 25.4547 64.5424 25.4547C65.1381 25.4547 65.6247 25.4093 66.0022 25.316C66.3786 25.2239 66.6602 25.0509 66.846 24.798C67.0318 24.5452 67.1241 24.1818 67.1241 23.7093V22.9311H69.5535V23.1901L67.3937 25.9899H67.1073C66.9946 26.2894 66.8124 26.5888 66.5583 26.8883C66.3055 27.1878 65.9591 27.4358 65.5204 27.6309C65.0817 27.8261 64.5304 27.9243 63.8664 27.9243L63.8676 27.9231ZM69.5535 23.7584H64.0354V21.5981H69.5535V23.7584ZM69.5535 27.75H67.208V24.6225L67.1241 24.4151V21.9099H69.5535V27.7512V27.75Z" fill="white"/>
<path d="M79.5423 27.75H73.7041V16.1729H79.2726C80.0828 16.1729 80.7636 16.2735 81.3137 16.4748C81.8651 16.6761 82.281 16.9903 82.5626 17.4162C82.8431 17.8422 82.9845 18.3896 82.9845 19.0573C82.9845 19.7251 82.7963 20.3105 82.4188 20.7426C82.0413 21.1747 81.4767 21.4361 80.7228 21.5294V21.7025C81.6337 21.7712 82.3145 22.0719 82.764 22.6009C83.2134 23.1312 83.4388 23.7879 83.4388 24.571C83.4388 25.2166 83.2949 25.7775 83.0085 26.2562C82.722 26.7349 82.2882 27.1032 81.7093 27.3622C81.1304 27.6212 80.4076 27.7513 79.5411 27.7513L79.5423 27.75ZM76.2355 18.505V20.7512H79.1036C79.5758 20.7512 79.9186 20.6763 80.1332 20.5266C80.3465 20.3768 80.4544 20.0773 80.4544 19.6281C80.4544 19.1555 80.3441 18.8499 80.1248 18.7124C79.9054 18.5737 79.565 18.505 79.1036 18.505H76.2355ZM76.2355 22.8599V25.4179H79.4584C79.9198 25.4179 80.2734 25.343 80.5215 25.1933C80.7684 25.0435 80.893 24.6986 80.893 24.1561C80.893 23.6136 80.772 23.2343 80.5299 23.0845C80.2878 22.9348 79.9306 22.8599 79.4584 22.8599H76.2355Z" fill="white"/>
<path d="M89.4472 27.9233C88.311 27.9233 87.3401 27.679 86.5359 27.1893C85.7317 26.6996 85.1096 26.0085 84.6709 25.1162C84.2323 24.2238 84.0129 23.1719 84.0129 21.9629C84.0129 20.7538 84.2323 19.7019 84.6709 18.8096C85.1096 17.9172 85.7317 17.2262 86.5359 16.7364C87.3401 16.2467 88.3098 16.0024 89.4472 16.0024C90.5846 16.0024 91.5399 16.2479 92.3501 16.7364C93.1603 17.2262 93.7812 17.9172 94.215 18.8096C94.6477 19.7019 94.8647 20.7538 94.8647 21.9629C94.8647 23.1719 94.6477 24.2238 94.215 25.1162C93.7824 26.0085 93.1603 26.7008 92.3501 27.1893C91.5399 27.679 90.5726 27.9233 89.4472 27.9233ZM89.4472 25.4181C90.0884 25.4181 90.6086 25.3175 91.0077 25.1162C91.4068 24.9149 91.6993 24.5626 91.8851 24.0618C92.0708 23.561 92.1631 22.8601 92.1631 21.9616C92.1631 21.0632 92.0708 20.3488 91.8851 19.8529C91.6993 19.3583 91.4068 19.0097 91.0077 18.8071C90.6086 18.6058 90.0884 18.5052 89.4472 18.5052C88.806 18.5052 88.269 18.6058 87.8699 18.8071C87.4708 19.0084 87.1783 19.357 86.9925 19.8529C86.8068 20.3488 86.7145 21.0509 86.7145 21.9616C86.7145 22.8724 86.8068 23.5598 86.9925 24.0618C87.1783 24.5626 87.4708 24.9149 87.8699 25.1162C88.269 25.3175 88.7952 25.4181 89.4472 25.4181Z" fill="white"/>
<path d="M101.039 27.9233C99.9032 27.9233 98.9324 27.679 98.1282 27.1893C97.324 26.6996 96.7019 26.0085 96.2632 25.1162C95.8246 24.2238 95.6052 23.1719 95.6052 21.9629C95.6052 20.7538 95.8246 19.7019 96.2632 18.8096C96.7019 17.9172 97.324 17.2262 98.1282 16.7364C98.9324 16.2467 99.9021 16.0024 101.039 16.0024C102.177 16.0024 103.132 16.2479 103.942 16.7364C104.753 17.2262 105.373 17.9172 105.807 18.8096C106.24 19.7019 106.457 20.7538 106.457 21.9629C106.457 23.1719 106.24 24.2238 105.807 25.1162C105.375 26.0085 104.753 26.7008 103.942 27.1893C103.132 27.679 102.165 27.9233 101.039 27.9233ZM101.039 25.4181C101.681 25.4181 102.201 25.3175 102.6 25.1162C102.999 24.9149 103.292 24.5626 103.477 24.0618C103.663 23.561 103.755 22.8601 103.755 21.9616C103.755 21.0632 103.663 20.3488 103.477 19.8529C103.292 19.3583 102.999 19.0097 102.6 18.8071C102.201 18.6058 101.681 18.5052 101.039 18.5052C100.398 18.5052 99.8613 18.6058 99.4622 18.8071C99.0631 19.0084 98.7706 19.357 98.5848 19.8529C98.3991 20.3488 98.3068 21.0509 98.3068 21.9616C98.3068 22.8724 98.3991 23.5598 98.5848 24.0618C98.7706 24.5626 99.0631 24.9149 99.4622 25.1162C99.8613 25.3175 100.387 25.4181 101.039 25.4181Z" fill="white"/>
<path d="M109.865 27.75H107.333V16.1729H109.865V27.7513V27.75ZM117.474 27.75H114.571L112.04 23.292H108.564V20.7868H112.006L114.655 16.1729H117.523L114.115 21.9099L117.473 27.7513L117.474 27.75Z" fill="white"/>
<path d="M122.267 27.9232C121.165 27.9232 120.254 27.7735 119.533 27.474C118.813 27.1745 118.278 26.7314 117.931 26.1434C117.582 25.5555 117.408 24.8362 117.408 23.9831V23.7585H119.889V23.9316C119.889 24.3575 119.956 24.6889 120.092 24.9258C120.227 25.1627 120.472 25.3296 120.825 25.4266C121.18 25.5248 121.7 25.5739 122.386 25.5739C123.071 25.5739 123.584 25.4941 123.821 25.3321C124.057 25.1713 124.175 24.8939 124.175 24.5023C124.175 24.2372 124.138 24.0249 124.065 23.8628C123.992 23.702 123.831 23.567 123.584 23.4566C123.336 23.3473 122.949 23.2516 122.421 23.1718L120.43 22.8085C119.709 22.682 119.122 22.4709 118.667 22.1776C118.211 21.8842 117.879 21.5148 117.671 21.0716C117.462 20.6285 117.359 20.1069 117.359 19.5079C117.359 18.9089 117.508 18.3443 117.806 17.814C118.105 17.2838 118.588 16.8493 119.258 16.5093C119.926 16.1693 120.795 15.9999 121.865 15.9999C122.934 15.9999 123.819 16.1729 124.488 16.5179C125.157 16.864 125.65 17.339 125.965 17.9429C126.28 18.548 126.437 19.2366 126.437 20.0075V20.1462H123.939V19.9559C123.939 19.5533 123.877 19.2366 123.753 19.0059C123.63 18.7751 123.411 18.6082 123.095 18.5051C122.78 18.402 122.342 18.3492 121.779 18.3492C121.059 18.3492 120.562 18.4327 120.286 18.5996C120.01 18.7665 119.873 19.0341 119.873 19.4036C119.873 19.6454 119.917 19.8381 120.008 19.9829C120.098 20.1265 120.258 20.2394 120.489 20.3205C120.719 20.4015 121.054 20.4874 121.493 20.5794L123.501 20.9771C124.288 21.1269 124.915 21.3662 125.382 21.694C125.849 22.0229 126.184 22.4169 126.387 22.8772C126.589 23.3387 126.69 23.8506 126.69 24.4152C126.69 25.0264 126.544 25.5984 126.251 26.1348C125.959 26.67 125.491 27.102 124.851 27.431C124.21 27.76 123.35 27.9232 122.27 27.9232H122.267Z" fill="white"/>
<path d="M129.894 27.75H127.362V16.1729H129.894V27.7513V27.75ZM136.103 23.0845H128.072V20.7684H136.103V23.0845ZM137.352 27.75H134.821V16.1729H137.352V27.7513V27.75Z" fill="white"/>
<path d="M141.183 27.7502H138.651V16.173H141.183V27.7514V27.7502ZM147.274 18.5051H139.36V16.1718H147.274V18.5051ZM147.021 23.0847H139.36V20.7685H147.021V23.0847ZM147.274 27.7502H139.36V25.4168H147.274V27.7502Z" fill="white"/>
<path d="M150.8 27.75H148.269V16.1729H150.8V27.7513V27.75ZM156.638 27.75H148.977V25.4167H156.638V27.75Z" fill="white"/>
<path d="M159.782 27.7502H157.25V16.173H159.782V27.7514V27.7502ZM165.739 18.5051H157.96V16.1718H165.739V18.5051ZM165.486 23.4652H157.96V21.149H165.486V23.4652Z" fill="white"/>
</g>
<defs>
<clipPath id="clip0_1717_1008">
<rect width="166" height="40" fill="white"/>
</clipPath>
</defs>
</svg>
