<svg width="42" height="42" viewBox="0 0 42 42" fill="none" xmlns="http://www.w3.org/2000/svg">
<path d="M19.1878 0.883072V16.7376C19.1878 18.4536 17.7973 19.8455 16.0799 19.8455H0C0.817473 9.62782 8.96274 1.47666 19.1775 0.657715C19.1848 0.732834 19.1863 0.80648 19.1863 0.883072H19.1878Z" fill="#F4CE47"/>
<path d="M41.7603 19.8457H25.6804C23.9644 19.8457 22.5725 18.4538 22.5725 16.7379V0.883316C22.5725 0.806724 22.5755 0.731605 22.5813 0.657959C32.7961 1.4769 40.9428 9.62807 41.7588 19.8457H41.7603Z" fill="#F4CE47"/>
<path d="M19.1878 26.337V42.193C19.1878 42.2681 19.1848 42.3418 19.1789 42.4169C8.96274 41.5965 0.817473 33.4483 0 23.2306H16.0799C17.7973 23.2306 19.1878 24.621 19.1878 26.337Z" fill="#F4CE47"/>
<path d="M41.7603 23.2304C40.9428 33.448 32.7975 41.5962 22.5828 42.4152C22.5754 42.3401 22.574 42.2664 22.574 42.1913V26.3353C22.574 24.6193 23.9659 23.2289 25.6818 23.2289H41.7618L41.7603 23.2304Z" fill="#F4CE47"/>
</svg>
