<svg width="66" height="56" viewBox="0 0 66 56" fill="none" xmlns="http://www.w3.org/2000/svg">
<path fill-rule="evenodd" clip-rule="evenodd" d="M30.1263 16.4626C30.1263 21.8532 25.7564 26.2232 20.3658 26.2232L0.921395 26.2232L0.921394 0.91245H30.1263L30.1263 16.4626ZM34.0195 0.91245H30.1263V0.912231L0.921394 0.912235V0.91245H0.92041V55.4283H0.921395V55.4285H30.1263V55.4283H34.0195V55.4285H65.1714V30.1175H65.1712V26.2232H65.1714V0.912235L34.0195 0.912231V0.91245ZM34.0195 0.91245H65.1712V26.2232L43.78 26.2232C38.3894 26.2232 34.0195 21.8532 34.0195 16.4626V0.91245ZM65.1712 30.1175H43.78C38.3894 30.1175 34.0195 34.4875 34.0195 39.8781V55.4283H65.1712V30.1175ZM30.1263 55.4283V39.8781C30.1263 34.4875 25.7564 30.1175 20.3658 30.1175H0.921395V55.4283H30.1263Z" fill="black" fill-opacity="0.2"/>
</svg>
