<svg width="18" height="14" viewBox="0 0 18 14" fill="none" xmlns="http://www.w3.org/2000/svg">
<path d="M0.353924 12.4147C1.91557 13.4191 3.77541 13.9999 5.76866 13.9999C12.3291 13.9999 16.0331 8.45955 15.8134 3.48427C16.504 2.98988 17.1004 2.36208 17.5791 1.65581C16.9434 1.93832 16.2607 2.12666 15.5466 2.21299C16.2764 1.77353 16.8336 1.08295 17.1004 0.258967C16.4176 0.667035 15.6643 0.957393 14.856 1.11434C14.2125 0.423767 13.2944 0 12.2742 0C9.99059 0 8.31909 2.12666 8.82917 4.33964C5.89423 4.19054 3.28886 2.78585 1.54673 0.643497C0.620729 2.22868 1.06803 4.30825 2.63752 5.35981C2.05681 5.34411 1.51534 5.17932 1.03665 4.92035C0.997411 6.56047 2.17453 8.09072 3.86958 8.42816C3.37519 8.56157 2.82587 8.59296 2.27655 8.49094C2.72385 9.89564 4.03437 10.9158 5.58032 10.9472C4.09715 12.1086 2.22161 12.6344 0.346069 12.4068L0.353924 12.4147Z" fill="white"/>
</svg>
