<svg width="18" height="18" viewBox="0 0 18 18" fill="none" xmlns="http://www.w3.org/2000/svg">
<path d="M8.52952 1.4665C8.70381 1.04746 9.29742 1.04746 9.47171 1.4665L11.4001 6.10287C11.4736 6.27952 11.6397 6.40022 11.8304 6.41551L16.8358 6.81679C17.2881 6.85306 17.4716 7.41762 17.1269 7.71286L13.3134 10.9796C13.1681 11.104 13.1046 11.2993 13.149 11.4854L14.3141 16.3698C14.4194 16.8113 13.9391 17.1602 13.5518 16.9236L9.26657 14.3062C9.10329 14.2065 8.89794 14.2065 8.73466 14.3062L4.44939 16.9236C4.06208 17.1602 3.58184 16.8113 3.68714 16.3698L4.85224 11.4854C4.89663 11.2993 4.83318 11.104 4.68787 10.9796L0.874327 7.71286C0.529656 7.41762 0.713092 6.85306 1.16548 6.81679L6.17083 6.41551C6.36154 6.40022 6.52767 6.27952 6.60115 6.10287L8.52952 1.4665Z" stroke="white" stroke-width="1.2" stroke-linecap="round" stroke-linejoin="round"/>
</svg>
